# Blender 5.0.0
# www.blender.org
mtllib Box.mtl
o Cube.042
v -1.000000 -1.000000 1.000000
v -1.000000 1.000000 1.000000
v -1.000000 -1.000000 -1.000000
v -1.000000 1.000000 -1.000000
v 1.000000 -1.000000 1.000000
v 1.000000 1.000000 1.000000
v 1.000000 -1.000000 -1.000000
v 1.000000 1.000000 -1.000000
v -1.000000 -0.618621 0.618621
v -1.000000 0.618621 0.618621
v -1.000000 0.618621 -0.618621
v -1.000000 -0.618621 -0.618621
v -0.618621 -0.618621 -1.000000
v -0.618621 0.618621 -1.000000
v 0.618621 0.618621 -1.000000
v 0.618621 -0.618621 -1.000000
v 1.000000 -0.618621 -0.618621
v 1.000000 0.618621 -0.618621
v 1.000000 0.618621 0.618621
v 1.000000 -0.618621 0.618621
v 0.618621 -0.618621 1.000000
v 0.618621 0.618621 1.000000
v -0.618621 0.618621 1.000000
v -0.618621 -0.618621 1.000000
v -0.618621 -1.000000 -0.618621
v 0.618621 -1.000000 -0.618621
v 0.618621 -1.000000 0.618621
v -0.618621 -1.000000 0.618621
v 0.618621 1.000000 -0.618621
v -0.618621 1.000000 -0.618621
v -0.618621 1.000000 0.618621
v 0.618621 1.000000 0.618621
v -0.679113 -0.618621 0.618621
v -0.679113 0.618621 0.618621
v -0.679113 -0.618621 -0.618621
v -0.679113 0.618621 -0.618621
v -0.618621 0.618621 -0.679113
v -0.618621 -0.618621 -0.679113
v 0.618621 -0.618621 -0.679113
v 0.618621 0.618621 -0.679113
v 0.679113 0.618621 -0.618621
v 0.679113 -0.618621 -0.618621
v 0.679113 -0.618621 0.618621
v 0.679113 0.618621 0.618621
v 0.618621 0.618621 0.679113
v 0.618621 -0.618621 0.679113
v -0.618621 -0.618621 0.679113
v -0.618621 0.618621 0.679113
v 0.618621 -0.679113 -0.618621
v -0.618621 -0.679113 -0.618621
v -0.618621 -0.679113 0.618621
v 0.618621 -0.679113 0.618621
v -0.618621 0.679113 -0.618621
v 0.618621 0.679113 -0.618621
v 0.618621 0.679113 0.618621
v -0.618621 0.679113 0.618621
vn -1.0000 -0.0000 -0.0000
vn 1.0000 -0.0000 -0.0000
vn -0.0000 -1.0000 -0.0000
vn -0.0000 -0.0000 1.0000
vn -0.0000 1.0000 -0.0000
vn -0.0000 -0.0000 -1.0000
vt 0.932784 0.630000
vt 0.097851 0.898261
s 0
f 15/1/1 16/1/1 39/1/1 40/1/1
f 28/1/2 25/1/2 50/1/2 51/1/2
f 18/1/3 19/1/3 44/1/3 41/1/3
f 11/1/4 12/1/4 35/1/4 36/1/4
f 29/1/4 30/1/4 53/1/4 54/1/4
f 24/1/5 21/1/5 46/1/5 47/1/5
f 1/1/1 2/1/1 10/1/1 9/1/1
f 2/1/1 4/1/1 11/1/1 10/1/1
f 4/1/1 3/1/1 12/1/1 11/1/1
f 3/1/1 1/1/1 9/1/1 12/1/1
f 3/1/6 4/1/6 14/1/6 13/1/6
f 4/1/6 8/1/6 15/1/6 14/1/6
f 8/1/6 7/1/6 16/1/6 15/1/6
f 7/1/6 3/1/6 13/1/6 16/1/6
f 7/1/2 8/1/2 18/1/2 17/1/2
f 8/1/2 6/1/2 19/1/2 18/1/2
f 6/1/2 5/1/2 20/1/2 19/1/2
f 5/1/2 7/1/2 17/1/2 20/1/2
f 5/1/4 6/1/4 22/1/4 21/1/4
f 6/1/4 2/1/4 23/1/4 22/1/4
f 2/1/4 1/1/4 24/1/4 23/1/4
f 1/1/4 5/1/4 21/1/4 24/1/4
f 3/1/3 7/1/3 26/1/3 25/1/3
f 7/1/3 5/1/3 27/1/3 26/1/3
f 5/1/3 1/1/3 28/1/3 27/1/3
f 1/1/3 3/1/3 25/1/3 28/1/3
f 8/1/5 4/1/5 30/1/5 29/1/5
f 4/1/5 2/1/5 31/1/5 30/1/5
f 2/1/5 6/1/5 32/1/5 31/1/5
f 6/1/5 8/1/5 29/1/5 32/1/5
f 33/2/1 34/2/1 36/2/1 35/2/1
f 38/2/6 37/2/6 40/2/6 39/2/6
f 42/2/2 41/2/2 44/2/2 43/2/2
f 46/2/4 45/2/4 48/2/4 47/2/4
f 50/2/3 49/2/3 52/2/3 51/2/3
f 54/2/5 53/2/5 56/2/5 55/2/5
f 22/1/3 23/1/3 48/1/3 45/1/3
f 32/1/1 29/1/1 54/1/1 55/1/1
f 19/1/6 20/1/6 43/1/6 44/1/6
f 26/1/1 27/1/1 52/1/1 49/1/1
f 23/1/2 24/1/2 47/1/2 48/1/2
f 30/1/2 31/1/2 56/1/2 53/1/2
f 27/1/6 28/1/6 51/1/6 52/1/6
f 31/1/6 32/1/6 55/1/6 56/1/6
f 9/1/6 10/1/6 34/1/6 33/1/6
f 13/1/2 14/1/2 37/1/2 38/1/2
f 12/1/5 9/1/5 33/1/5 35/1/5
f 17/1/4 18/1/4 41/1/4 42/1/4
f 16/1/5 13/1/5 38/1/5 39/1/5
f 21/1/1 22/1/1 45/1/1 46/1/1
f 10/1/3 11/1/3 36/1/3 34/1/3
f 20/1/5 17/1/5 42/1/5 43/1/5
f 25/1/4 26/1/4 49/1/4 50/1/4
f 14/1/3 15/1/3 40/1/3 37/1/3
