# Blender 5.0.0
# www.blender.org
mtllib ColorSwitcher.mtl
o Cube.041
v 8.000000 2.000000 -10.000000
v 8.000000 3.000000 -10.000000
v 8.000000 2.000000 -14.000000
v 8.000000 3.000000 -14.000000
v 12.000000 2.000000 -10.000000
v 12.000000 3.000000 -10.000000
v 12.000000 2.000000 -14.000000
v 12.000000 3.000000 -14.000000
v 10.000000 2.000000 -14.000000
v 10.000000 3.000000 -14.000000
v 10.000000 2.000000 -10.000000
v 10.000000 3.000000 -10.000000
v 9.000000 2.000000 -14.000000
v 9.000000 3.000000 -10.000000
v 9.000000 3.000000 -14.000000
v 9.000000 2.000000 -10.000000
v 11.000000 3.000000 -14.000000
v 11.000000 2.000000 -10.000000
v 11.000000 2.000000 -14.000000
v 11.000000 3.000000 -10.000000
v 8.000000 0.000000 -14.000000
v 8.000000 0.000000 -10.000000
v 9.000000 0.000000 -14.000000
v 9.000000 0.000000 -10.000000
vn -1.0000 -0.0000 -0.0000
vn -0.0000 -0.0000 -1.0000
vn 1.0000 -0.0000 -0.0000
vn -0.0000 -0.0000 1.0000
vn -0.0000 -1.0000 -0.0000
vn -0.0000 1.0000 -0.0000
vt 0.216252 0.261890
s 0
f 1/1/1 2/1/1 4/1/1 3/1/1
f 19/1/2 17/1/2 8/1/2 7/1/2
f 7/1/3 8/1/3 6/1/3 5/1/3
f 16/1/4 14/1/4 2/1/4 1/1/4
f 19/1/5 7/1/5 5/1/5 18/1/5
f 15/1/6 4/1/6 2/1/6 14/1/6
f 17/1/6 10/1/6 12/1/6 20/1/6
f 13/1/5 9/1/5 11/1/5 16/1/5
f 18/1/4 20/1/4 12/1/4 11/1/4
f 13/1/2 15/1/2 10/1/2 9/1/2
f 3/1/2 4/1/2 15/1/2 13/1/2
f 1/1/1 3/1/1 21/1/1 22/1/1
f 10/1/6 15/1/6 14/1/6 12/1/6
f 11/1/4 12/1/4 14/1/4 16/1/4
f 5/1/4 6/1/4 20/1/4 18/1/4
f 8/1/6 17/1/6 20/1/6 6/1/6
f 9/1/5 19/1/5 18/1/5 11/1/5
f 9/1/2 10/1/2 17/1/2 19/1/2
f 21/1/5 23/1/5 24/1/5 22/1/5
f 13/1/3 16/1/3 24/1/3 23/1/3
f 16/1/4 1/1/4 22/1/4 24/1/4
f 3/1/2 13/1/2 23/1/2 21/1/2
