# Blender 5.0.0
# www.blender.org
mtllib PlayerBall.mtl
o Sphere.001
v 1.000000 0.000000 0.000000
v 0.707107 0.000000 -0.707107
v 0.000000 0.000000 -1.000000
v -0.707107 -0.000000 -0.707107
v -1.000000 -0.000000 0.000000
v 0.707107 -0.500000 -0.500000
v 0.000000 -0.707107 -0.707107
v -0.707107 -0.500000 -0.500000
v 0.707107 -0.707107 0.000000
v 0.000000 -1.000000 0.000000
v -0.707107 -0.707107 0.000000
v 0.707107 -0.500000 0.500000
v 0.000000 -0.707107 0.707107
v -0.707107 -0.500000 0.500000
v 0.707107 0.000000 0.707107
v 0.000000 0.000000 1.000000
v -0.707107 -0.000000 0.707107
v 0.707107 0.500000 0.500000
v -0.000000 0.707107 0.707107
v -0.707107 0.500000 0.500000
v 0.707107 0.707107 0.000000
v -0.000000 1.000000 0.000000
v -0.707107 0.707107 0.000000
v 0.707107 0.500000 -0.500000
v -0.000000 0.707107 -0.707107
v -0.707107 0.500000 -0.500000
vn -0.3574 -0.3574 -0.8629
vn 0.9125 -0.1566 -0.3780
vn -0.9125 -0.1566 -0.3780
vn 0.3574 -0.3574 -0.8629
vn -0.3574 -0.8629 -0.3574
vn 0.9125 -0.3780 -0.1566
vn -0.9125 -0.3780 -0.1566
vn 0.3574 -0.8629 -0.3574
vn -0.3574 -0.8629 0.3574
vn 0.9125 -0.3780 0.1566
vn -0.9125 -0.3780 0.1566
vn 0.3574 -0.8629 0.3574
vn -0.3574 -0.3574 0.8629
vn 0.9125 -0.1566 0.3780
vn -0.9125 -0.1566 0.3780
vn 0.3574 -0.3574 0.8629
vn 0.3574 0.3574 0.8629
vn -0.3574 0.3574 0.8629
vn 0.9125 0.1566 0.3780
vn -0.9125 0.1566 0.3780
vn -0.9125 0.3780 0.1566
vn 0.3574 0.8629 0.3574
vn -0.3574 0.8629 0.3574
vn 0.9125 0.3780 0.1566
vn -0.9125 0.3780 -0.1566
vn 0.3574 0.8629 -0.3574
vn -0.3574 0.8629 -0.3574
vn 0.9125 0.3780 -0.1566
vn -0.9125 0.1566 -0.3780
vn 0.3574 0.3574 -0.8629
vn -0.3574 0.3574 -0.8629
vn 0.9125 0.1566 -0.3780
vt 0.500000 0.500000
s 0
f 4/1/1 3/1/1 7/1/1 8/1/1
f 2/1/2 1/1/2 6/1/2
f 5/1/3 4/1/3 8/1/3
f 3/1/4 2/1/4 6/1/4 7/1/4
f 8/1/5 7/1/5 10/1/5 11/1/5
f 6/1/6 1/1/6 9/1/6
f 5/1/7 8/1/7 11/1/7
f 7/1/8 6/1/8 9/1/8 10/1/8
f 11/1/9 10/1/9 13/1/9 14/1/9
f 9/1/10 1/1/10 12/1/10
f 5/1/11 11/1/11 14/1/11
f 10/1/12 9/1/12 12/1/12 13/1/12
f 14/1/13 13/1/13 16/1/13 17/1/13
f 12/1/14 1/1/14 15/1/14
f 5/1/15 14/1/15 17/1/15
f 13/1/16 12/1/16 15/1/16 16/1/16
f 16/1/17 15/1/17 18/1/17 19/1/17
f 17/1/18 16/1/18 19/1/18 20/1/18
f 15/1/19 1/1/19 18/1/19
f 5/1/20 17/1/20 20/1/20
f 5/1/21 20/1/21 23/1/21
f 19/1/22 18/1/22 21/1/22 22/1/22
f 20/1/23 19/1/23 22/1/23 23/1/23
f 18/1/24 1/1/24 21/1/24
f 5/1/25 23/1/25 26/1/25
f 22/1/26 21/1/26 24/1/26 25/1/26
f 23/1/27 22/1/27 25/1/27 26/1/27
f 21/1/28 1/1/28 24/1/28
f 5/1/29 26/1/29 4/1/29
f 25/1/30 24/1/30 2/1/30 3/1/30
f 26/1/31 25/1/31 3/1/31 4/1/31
f 24/1/32 1/1/32 2/1/32
