# Blender 5.0.0
# www.blender.org
mtllib SmallPlatform.mtl
o Cube.044
v -2.000000 -1.000000 4.000000
v -2.000000 1.000000 4.000000
v -2.000000 -1.000000 -4.000000
v -2.000000 1.000000 -4.000000
v 2.000000 -1.000000 4.000000
v 2.000000 1.000000 4.000000
v 2.000000 -1.000000 -4.000000
v 2.000000 1.000000 -4.000000
vn -1.0000 -0.0000 -0.0000
vn -0.0000 -0.0000 -1.0000
vn 1.0000 -0.0000 -0.0000
vn -0.0000 -0.0000 1.0000
vn -0.0000 -1.0000 -0.0000
vn -0.0000 1.0000 -0.0000
vt 0.071402 0.484126
s 0
f 1/1/1 2/1/1 4/1/1 3/1/1
f 3/1/2 4/1/2 8/1/2 7/1/2
f 7/1/3 8/1/3 6/1/3 5/1/3
f 5/1/4 6/1/4 2/1/4 1/1/4
f 3/1/5 7/1/5 5/1/5 1/1/5
f 8/1/6 4/1/6 2/1/6 6/1/6
