# Blender 5.0.0
# www.blender.org
mtllib Switcher.mtl
o Cube.041
v -2.000000 2.000000 2.000000
v -2.000000 3.000000 2.000000
v -2.000000 2.000000 -2.000000
v -2.000000 3.000000 -2.000000
v 2.000000 2.000000 2.000000
v 2.000000 3.000000 2.000000
v 2.000000 2.000000 -2.000000
v 2.000000 3.000000 -2.000000
v 0.000000 2.000000 -2.000000
v 0.000000 3.000000 -2.000000
v 0.000000 2.000000 2.000000
v 0.000000 3.000000 2.000000
v -1.000000 2.000000 -2.000000
v -1.000000 3.000000 2.000000
v -1.000000 3.000000 -2.000000
v -1.000000 2.000000 2.000000
v 1.000000 3.000000 -2.000000
v 1.000000 2.000000 2.000000
v 1.000000 2.000000 -2.000000
v 1.000000 3.000000 2.000000
v -2.000000 0.000000 -2.000000
v -2.000000 0.000000 2.000000
v -1.000000 0.000000 -2.000000
v -1.000000 0.000000 2.000000
v 1.400000 0.000000 -1.400000
v 1.400000 2.000000 -1.400000
v 1.400000 0.000000 -2.000000
v 1.400000 2.000000 -2.000000
v 2.000000 0.000000 -1.400000
v 2.000000 2.000000 -1.400000
v 2.000000 0.000000 -2.000000
v 2.000000 2.000000 -2.000000
v 1.400000 0.000000 2.000000
v 1.400000 2.000000 2.000000
v 1.400000 0.000000 1.400000
v 1.400000 2.000000 1.400000
v 2.000000 0.000000 2.000000
v 2.000000 2.000000 2.000000
v 2.000000 0.000000 1.400000
v 2.000000 2.000000 1.400000
v -2.000000 2.000000 -0.666667
v -2.000000 2.000000 0.666667
v -2.000000 3.000000 0.666667
v -2.000000 3.000000 -0.666667
v 2.000000 2.000000 0.666667
v 2.000000 2.000000 -0.666667
v 2.000000 3.000000 -0.666667
v 2.000000 3.000000 0.666667
v 0.000000 3.000000 -0.666667
v 0.000000 3.000000 0.666667
v 0.000000 2.000000 -0.666667
v 0.000000 2.000000 0.666667
v -1.000000 2.000000 -0.666667
v -1.000000 2.000000 0.666667
v -1.000000 3.000000 -0.666667
v -1.000000 3.000000 0.666667
v 1.000000 3.000000 -0.666667
v 1.000000 3.000000 0.666667
v 1.000000 2.000000 -0.666667
v 1.000000 2.000000 0.666667
v -2.000000 0.000000 -0.666667
v -2.000000 0.000000 0.666667
v -1.000000 0.000000 -0.666667
v -1.000000 0.000000 0.666667
v 0.000000 3.300000 -0.666667
v 0.000000 3.300000 0.666667
v -1.000000 3.300000 -0.666667
v -1.000000 3.300000 0.666667
v 1.000000 3.300000 -0.666667
v 1.000000 3.300000 0.666667
v 0.000000 3.600000 -0.666667
v 0.000000 3.600000 0.666667
v -1.000000 3.600000 -0.666667
v -1.000000 3.600000 0.666667
v 1.000000 3.600000 -0.666667
v 1.000000 3.600000 0.666667
v 1.151440 3.300000 -0.818106
v 1.151440 3.600000 -0.818106
v -1.151440 3.300000 -0.818106
v -1.151440 3.300000 0.818106
v 1.151440 3.300000 0.818106
v 0.000000 3.300000 -0.880835
v 0.000000 3.300000 0.880835
v -1.151440 3.600000 -0.818106
v -1.151440 3.600000 0.818106
v 1.151440 3.600000 0.818106
v 0.000000 3.600000 -0.880835
v 0.000000 3.600000 0.880835
vn -1.0000 -0.0000 -0.0000
vn -0.0000 -0.0000 -1.0000
vn 1.0000 -0.0000 -0.0000
vn -0.0000 -0.0000 1.0000
vn -0.0000 -1.0000 -0.0000
vn -0.0000 1.0000 -0.0000
vn 0.0544 -0.0000 -0.9985
vn -0.0544 -0.0000 -0.9985
vn 0.0544 -0.0000 0.9985
vn -0.0544 -0.0000 0.9985
vt 0.216252 0.261890
vt 0.375000 0.000000
vt 0.625000 0.000000
vt 0.625000 0.250000
vt 0.375000 0.250000
vt 0.625000 0.500000
vt 0.375000 0.500000
vt 0.625000 0.750000
vt 0.375000 0.750000
vt 0.625000 1.000000
vt 0.375000 1.000000
vt 0.125000 0.500000
vt 0.125000 0.750000
vt 0.875000 0.500000
vt 0.875000 0.750000
s 0
f 41/1/1 44/1/1 4/1/1 3/1/1
f 19/1/2 17/1/2 8/1/2 7/1/2
f 45/1/3 48/1/3 6/1/3 5/1/3
f 16/1/4 14/1/4 2/1/4 1/1/4
f 60/1/5 45/1/5 5/1/5 18/1/5
f 56/1/6 43/1/6 2/1/6 14/1/6
f 58/1/6 50/1/6 12/1/6 20/1/6
f 54/1/5 52/1/5 11/1/5 16/1/5
f 18/1/4 20/1/4 12/1/4 11/1/4
f 13/1/2 15/1/2 10/1/2 9/1/2
f 3/1/2 4/1/2 15/1/2 13/1/2
f 41/1/1 3/1/1 21/1/1 61/1/1
f 50/1/6 56/1/6 14/1/6 12/1/6
f 11/1/4 12/1/4 14/1/4 16/1/4
f 5/1/4 6/1/4 20/1/4 18/1/4
f 48/1/6 58/1/6 20/1/6 6/1/6
f 52/1/5 60/1/5 18/1/5 11/1/5
f 9/1/2 10/1/2 17/1/2 19/1/2
f 62/1/5 64/1/5 24/1/5 22/1/5
f 54/1/3 16/1/3 24/1/3 64/1/3
f 16/1/4 1/1/4 22/1/4 24/1/4
f 3/1/2 13/1/2 23/1/2 21/1/2
f 25/2/1 26/3/1 28/4/1 27/5/1
f 27/5/2 28/4/2 32/6/2 31/7/2
f 31/7/3 32/6/3 30/8/3 29/9/3
f 29/9/4 30/8/4 26/10/4 25/11/4
f 27/12/5 31/7/5 29/9/5 25/13/5
f 32/6/6 28/14/6 26/15/6 30/8/6
f 33/2/1 34/3/1 36/4/1 35/5/1
f 35/5/2 36/4/2 40/6/2 39/7/2
f 39/7/3 40/6/3 38/8/3 37/9/3
f 37/9/4 38/8/4 34/10/4 33/11/4
f 35/12/5 39/7/5 37/9/5 33/13/5
f 40/6/6 36/14/6 34/15/6 38/8/6
f 13/1/3 53/1/3 63/1/3 23/1/3
f 53/1/3 54/1/3 64/1/3 63/1/3
f 21/1/5 23/1/5 63/1/5 61/1/5
f 61/1/5 63/1/5 64/1/5 62/1/5
f 9/1/5 19/1/5 59/1/5 51/1/5
f 51/1/5 59/1/5 60/1/5 52/1/5
f 8/1/6 17/1/6 57/1/6 47/1/6
f 47/1/6 57/1/6 58/1/6 48/1/6
f 10/1/6 15/1/6 55/1/6 49/1/6
f 58/1/3 57/1/3 69/1/3 70/1/3
f 1/1/1 42/1/1 62/1/1 22/1/1
f 42/1/1 41/1/1 61/1/1 62/1/1
f 13/1/5 9/1/5 51/1/5 53/1/5
f 53/1/5 51/1/5 52/1/5 54/1/5
f 17/1/6 10/1/6 49/1/6 57/1/6
f 50/1/4 58/1/4 70/1/4 66/1/4
f 15/1/6 4/1/6 44/1/6 55/1/6
f 55/1/6 44/1/6 43/1/6 56/1/6
f 19/1/5 7/1/5 46/1/5 59/1/5
f 59/1/5 46/1/5 45/1/5 60/1/5
f 7/1/3 8/1/3 47/1/3 46/1/3
f 46/1/3 47/1/3 48/1/3 45/1/3
f 1/1/1 2/1/1 43/1/1 42/1/1
f 42/1/1 43/1/1 44/1/1 41/1/1
f 69/1/5 65/1/5 82/1/5 77/1/5
f 73/1/6 71/1/6 87/1/6 84/1/6
f 55/1/1 56/1/1 68/1/1 67/1/1
f 56/1/4 50/1/4 66/1/4 68/1/4
f 57/1/2 49/1/2 65/1/2 69/1/2
f 49/1/2 55/1/2 67/1/2 65/1/2
f 71/1/6 73/1/6 74/1/6 72/1/6
f 75/1/6 71/1/6 72/1/6 76/1/6
f 67/1/5 68/1/5 80/1/5 79/1/5
f 76/1/6 72/1/6 88/1/6 86/1/6
f 68/1/5 66/1/5 83/1/5 80/1/5
f 75/1/6 76/1/6 86/1/6 78/1/6
f 77/1/7 82/1/7 87/1/7 78/1/7
f 81/1/3 77/1/3 78/1/3 86/1/3
f 82/1/8 79/1/8 84/1/8 87/1/8
f 79/1/1 80/1/1 85/1/1 84/1/1
f 83/1/9 81/1/9 86/1/9 88/1/9
f 80/1/10 83/1/10 88/1/10 85/1/10
f 70/1/5 69/1/5 77/1/5 81/1/5
f 72/1/6 74/1/6 85/1/6 88/1/6
f 66/1/5 70/1/5 81/1/5 83/1/5
f 74/1/6 73/1/6 84/1/6 85/1/6
f 65/1/5 67/1/5 79/1/5 82/1/5
f 71/1/6 75/1/6 78/1/6 87/1/6
