# Blender 5.0.0
# www.blender.org
mtllib FinishLine.mtl
o Cube.039
v 12.000000 4.000000 -28.000000
v 12.000000 0.000000 -28.000000
v 12.000000 4.000000 -26.000000
v 12.000000 0.000000 -26.000000
v 8.000000 4.000000 -28.000000
v 8.000000 0.000000 -28.000000
v 8.000000 4.000000 -26.000000
v 8.000000 0.000000 -26.000000
v 12.000000 3.000000 -28.000000
v 8.000000 3.000000 -26.000000
v 12.000000 3.000000 -26.000000
v 8.000000 3.000000 -28.000000
v 10.000000 0.000000 -28.000000
v 10.000000 4.000000 -26.000000
v 11.000000 3.000000 -27.500000
v 10.000000 4.000000 -28.000000
v 10.000000 3.000000 -28.000000
v 10.000000 3.000000 -26.000000
v 11.000000 0.000000 -26.000000
v 11.000000 4.000000 -28.000000
v 11.000000 3.000000 -28.000000
v 11.000000 0.000000 -28.000000
v 11.000000 4.000000 -26.000000
v 11.000000 3.000000 -26.000000
v 9.000000 0.000000 -28.000000
v 9.000000 4.000000 -26.000000
v 9.000000 3.000000 -26.000000
v 9.000000 0.000000 -26.000000
v 9.000000 4.000000 -28.000000
v 9.000000 3.000000 -28.000000
v 8.000000 0.000000 -27.500000
v 12.000000 4.000000 -27.500000
v 8.000000 4.000000 -27.500000
v 12.000000 0.000000 -27.500000
v 12.000000 3.000000 -27.500000
v 8.000000 3.000000 -27.500000
v 10.000000 0.000000 -27.500000
v 10.000000 4.000000 -27.500000
v 11.000000 4.000000 -27.500000
v 11.000000 0.000000 -27.500000
v 9.000000 0.000000 -27.500000
v 9.000000 4.000000 -27.500000
v 10.000000 3.000000 -27.500000
v 9.000000 3.000000 -27.500000
v 10.000000 4.000000 -27.500000
v 10.000000 4.700000 -27.250828
v 10.097546 4.000000 -27.490395
v 10.048934 4.700000 -27.246008
v 10.191341 4.000000 -27.461941
v 10.095987 4.700000 -27.231735
v 10.277785 4.000000 -27.415737
v 10.139352 4.700000 -27.208555
v 10.353554 4.000000 -27.353554
v 10.177361 4.700000 -27.177362
v 10.415735 4.000000 -27.277786
v 10.208554 4.700000 -27.139353
v 10.461940 4.000000 -27.191341
v 10.231733 4.700000 -27.095989
v 10.490393 4.000000 -27.097546
v 10.246007 4.700000 -27.048935
v 10.500000 4.000000 -27.000000
v 10.250826 4.700000 -27.000002
v 10.490393 4.000000 -26.902454
v 10.246007 4.700000 -26.951067
v 10.461940 4.000000 -26.808659
v 10.231733 4.700000 -26.904015
v 10.415735 4.000000 -26.722216
v 10.208554 4.700000 -26.860649
v 10.353554 4.000000 -26.646446
v 10.177361 4.700000 -26.822639
v 10.277785 4.000000 -26.584267
v 10.139352 4.700000 -26.791447
v 10.191341 4.000000 -26.538061
v 10.095987 4.700000 -26.768269
v 10.097546 4.000000 -26.509609
v 10.048934 4.700000 -26.753994
v 10.000000 4.000000 -26.500000
v 10.000000 4.700000 -26.749176
v 9.902454 4.000000 -26.509609
v 9.951066 4.700000 -26.753994
v 9.808659 4.000000 -26.538061
v 9.904013 4.700000 -26.768269
v 9.722215 4.000000 -26.584267
v 9.860648 4.700000 -26.791447
v 9.646446 4.000000 -26.646446
v 9.822639 4.700000 -26.822639
v 9.584265 4.000000 -26.722216
v 9.791446 4.700000 -26.860649
v 9.538060 4.000000 -26.808659
v 9.768267 4.700000 -26.904015
v 9.509607 4.000000 -26.902454
v 9.753993 4.700000 -26.951067
v 9.500000 4.000000 -27.000000
v 9.749174 4.700000 -27.000002
v 9.509607 4.000000 -27.097546
v 9.753993 4.700000 -27.048935
v 9.538060 4.000000 -27.191341
v 9.768267 4.700000 -27.095989
v 9.584265 4.000000 -27.277786
v 9.791446 4.700000 -27.139353
v 9.646446 4.000000 -27.353554
v 9.822639 4.700000 -27.177362
v 9.722215 4.000000 -27.415737
v 9.860648 4.700000 -27.208555
v 9.808659 4.000000 -27.461941
v 9.904013 4.700000 -27.231735
v 9.902454 4.000000 -27.490395
v 9.951066 4.700000 -27.246008
vn -0.0000 1.0000 -0.0000
vn -0.0000 -0.0000 1.0000
vn -1.0000 -0.0000 -0.0000
vn -0.0000 -1.0000 -0.0000
vn 1.0000 -0.0000 -0.0000
vn -0.0000 -0.0000 -1.0000
vn 0.0924 0.3339 -0.9381
vn 0.2736 0.3339 -0.9020
vn 0.4443 0.3339 -0.8313
vn 0.5980 0.3339 -0.7286
vn 0.7286 0.3339 -0.5980
vn 0.8313 0.3339 -0.4443
vn 0.9020 0.3339 -0.2736
vn 0.9381 0.3339 -0.0924
vn 0.9381 0.3339 0.0924
vn 0.9020 0.3339 0.2736
vn 0.8313 0.3339 0.4443
vn 0.7286 0.3339 0.5980
vn 0.5980 0.3339 0.7286
vn 0.4443 0.3339 0.8313
vn 0.2736 0.3339 0.9020
vn 0.0924 0.3339 0.9381
vn -0.0924 0.3339 0.9381
vn -0.2736 0.3339 0.9020
vn -0.4443 0.3339 0.8313
vn -0.5980 0.3339 0.7286
vn -0.7286 0.3339 0.5980
vn -0.8313 0.3339 0.4443
vn -0.9020 0.3339 0.2736
vn -0.9381 0.3339 0.0924
vn -0.9381 0.3339 -0.0924
vn -0.9020 0.3339 -0.2736
vn -0.8313 0.3339 -0.4443
vn -0.7286 0.3339 -0.5980
vn -0.5980 0.3339 -0.7286
vn -0.4443 0.3339 -0.8313
vn -0.2736 0.3339 -0.9020
vn -0.0924 0.3339 -0.9381
vt 0.200378 0.489417
vt 0.795653 0.901850
s 0
f 42/1/1 33/1/1 7/1/1 26/1/1
f 27/1/2 26/1/2 7/1/2 10/1/2
f 36/1/3 33/1/3 5/1/3 12/1/3
f 40/1/4 34/1/4 4/1/4 19/1/4
f 35/1/5 32/1/5 3/1/5 11/1/5
f 21/1/6 20/1/6 1/1/6 9/1/6
f 22/1/6 21/1/6 9/1/6 2/1/6
f 34/1/5 35/1/5 11/1/5 4/1/5
f 31/1/3 36/1/3 12/1/3 6/1/3
f 28/1/2 27/1/2 10/1/2 8/1/2
f 25/1/6 30/1/6 17/1/6 13/1/6
f 30/1/6 29/1/6 16/1/6 17/1/6
f 24/1/2 23/1/2 14/1/2 18/1/2
f 39/1/1 38/1/1 14/1/1 23/1/1
f 32/1/1 39/1/1 23/1/1 3/1/1
f 11/1/2 3/1/2 23/1/2 24/1/2
f 4/1/2 11/1/2 24/1/2 19/1/2
f 13/1/6 17/1/6 21/1/6 22/1/6
f 17/1/6 16/1/6 20/1/6 21/1/6
f 41/1/2 37/1/2 43/1/2 44/1/2
f 31/1/4 41/1/4 28/1/4 8/1/4
f 12/1/6 5/1/6 29/1/6 30/1/6
f 6/1/6 12/1/6 30/1/6 25/1/6
f 18/1/2 14/1/2 26/1/2 27/1/2
f 38/1/1 42/1/1 26/1/1 14/1/1
f 16/1/1 29/1/1 42/1/1 38/1/1
f 6/1/4 25/1/4 41/1/4 31/1/4
f 13/1/4 22/1/4 40/1/4 37/1/4
f 1/1/1 20/1/1 39/1/1 32/1/1
f 20/1/1 16/1/1 38/1/1 39/1/1
f 25/1/4 13/1/4 37/1/4 41/1/4
f 8/1/3 10/1/3 36/1/3 31/1/3
f 2/1/5 9/1/5 35/1/5 34/1/5
f 9/1/5 1/1/5 32/1/5 35/1/5
f 22/1/4 2/1/4 34/1/4 40/1/4
f 10/1/3 7/1/3 33/1/3 36/1/3
f 29/1/1 5/1/1 33/1/1 42/1/1
f 37/1/2 40/1/2 15/1/2 43/1/2
f 44/1/4 43/1/4 18/1/4 27/1/4
f 43/1/4 15/1/4 24/1/4 18/1/4
f 24/1/3 15/1/3 40/1/3 19/1/3
f 41/1/5 44/1/5 27/1/5 28/1/5
f 45/2/7 46/2/7 48/2/7 47/2/7
f 47/2/8 48/2/8 50/2/8 49/2/8
f 49/2/9 50/2/9 52/2/9 51/2/9
f 51/2/10 52/2/10 54/2/10 53/2/10
f 53/2/11 54/2/11 56/2/11 55/2/11
f 55/2/12 56/2/12 58/2/12 57/2/12
f 57/2/13 58/2/13 60/2/13 59/2/13
f 59/2/14 60/2/14 62/2/14 61/2/14
f 61/2/15 62/2/15 64/2/15 63/2/15
f 63/2/16 64/2/16 66/2/16 65/2/16
f 65/2/17 66/2/17 68/2/17 67/2/17
f 67/2/18 68/2/18 70/2/18 69/2/18
f 69/2/19 70/2/19 72/2/19 71/2/19
f 71/2/20 72/2/20 74/2/20 73/2/20
f 73/2/21 74/2/21 76/2/21 75/2/21
f 75/2/22 76/2/22 78/2/22 77/2/22
f 77/2/23 78/2/23 80/2/23 79/2/23
f 79/2/24 80/2/24 82/2/24 81/2/24
f 81/2/25 82/2/25 84/2/25 83/2/25
f 83/2/26 84/2/26 86/2/26 85/2/26
f 85/2/27 86/2/27 88/2/27 87/2/27
f 87/2/28 88/2/28 90/2/28 89/2/28
f 89/2/29 90/2/29 92/2/29 91/2/29
f 91/2/30 92/2/30 94/2/30 93/2/30
f 93/2/31 94/2/31 96/2/31 95/2/31
f 95/2/32 96/2/32 98/2/32 97/2/32
f 97/2/33 98/2/33 100/2/33 99/2/33
f 99/2/34 100/2/34 102/2/34 101/2/34
f 101/2/35 102/2/35 104/2/35 103/2/35
f 103/2/36 104/2/36 106/2/36 105/2/36
f 48/2/1 46/2/1 108/2/1 106/2/1 104/2/1 102/2/1 100/2/1 98/2/1 96/2/1 94/2/1 92/2/1 90/2/1 88/2/1 86/2/1 84/2/1 82/2/1 80/2/1 78/2/1 76/2/1 74/2/1 72/2/1 70/2/1 68/2/1 66/2/1 64/2/1 62/2/1 60/2/1 58/2/1 56/2/1 54/2/1 52/2/1 50/2/1
f 105/2/37 106/2/37 108/2/37 107/2/37
f 107/2/38 108/2/38 46/2/38 45/2/38
f 45/2/4 47/2/4 49/2/4 51/2/4 53/2/4 55/2/4 57/2/4 59/2/4 61/2/4 63/2/4 65/2/4 67/2/4 69/2/4 71/2/4 73/2/4 75/2/4 77/2/4 79/2/4 81/2/4 83/2/4 85/2/4 87/2/4 89/2/4 91/2/4 93/2/4 95/2/4 97/2/4 99/2/4 101/2/4 103/2/4 105/2/4 107/2/4
